<mxfile host="app.diagrams.net" modified="2020-04-04T19:25:55.200Z" agent="5.0 (Windows NT 6.1; Win64; x64) AppleWebKit/537.36 (KHTML, like Gecko) Chrome/80.0.3987.132 Safari/537.36" etag="_fuU3vFg8Lffwh5xuMK9" version="12.9.6" type="github">
  <diagram id="9UC1ZBUf9r_J20Ng0Syh" name="Page-1">
    <mxGraphModel dx="868" dy="450" grid="1" gridSize="10" guides="1" tooltips="1" connect="1" arrows="1" fold="1" page="1" pageScale="1" pageWidth="827" pageHeight="1169" math="0" shadow="0">
      <root>
        <mxCell id="0" />
        <mxCell id="1" parent="0" />
        <mxCell id="mh5o7TWo_xymcsIFWV8s-2" value="" style="rounded=0;whiteSpace=wrap;html=1;" parent="1" vertex="1">
          <mxGeometry x="80" y="50" width="680" height="390" as="geometry" />
        </mxCell>
        <mxCell id="mh5o7TWo_xymcsIFWV8s-3" value="" style="rounded=0;whiteSpace=wrap;html=1;" parent="1" vertex="1">
          <mxGeometry x="700" y="50" width="60" height="20" as="geometry" />
        </mxCell>
        <mxCell id="mh5o7TWo_xymcsIFWV8s-5" value="" style="whiteSpace=wrap;html=1;aspect=fixed;" parent="1" vertex="1">
          <mxGeometry x="720" y="50" width="20" height="20" as="geometry" />
        </mxCell>
        <mxCell id="mh5o7TWo_xymcsIFWV8s-6" value="" style="whiteSpace=wrap;html=1;aspect=fixed;" parent="1" vertex="1">
          <mxGeometry x="740" y="50" width="20" height="20" as="geometry" />
        </mxCell>
        <mxCell id="mh5o7TWo_xymcsIFWV8s-10" value="" style="whiteSpace=wrap;html=1;aspect=fixed;" parent="1" vertex="1">
          <mxGeometry x="725" y="55" width="10" height="10" as="geometry" />
        </mxCell>
        <mxCell id="mh5o7TWo_xymcsIFWV8s-14" value="X" style="text;html=1;strokeColor=none;fillColor=none;align=center;verticalAlign=middle;whiteSpace=wrap;rounded=0;" parent="1" vertex="1">
          <mxGeometry x="740" y="50" width="20" height="20" as="geometry" />
        </mxCell>
        <mxCell id="mh5o7TWo_xymcsIFWV8s-15" value="__" style="text;html=1;strokeColor=none;fillColor=none;align=center;verticalAlign=middle;whiteSpace=wrap;rounded=0;" parent="1" vertex="1">
          <mxGeometry x="700" y="50" width="20" height="10" as="geometry" />
        </mxCell>
        <mxCell id="mh5o7TWo_xymcsIFWV8s-16" value="" style="rounded=0;whiteSpace=wrap;html=1;" parent="1" vertex="1">
          <mxGeometry x="90" y="80" width="660" height="350" as="geometry" />
        </mxCell>
        <mxCell id="mh5o7TWo_xymcsIFWV8s-17" value="&lt;div&gt;Healthy Weight Calculator&lt;/div&gt;" style="text;html=1;strokeColor=none;fillColor=none;align=center;verticalAlign=middle;whiteSpace=wrap;rounded=0;fontSize=23;" parent="1" vertex="1">
          <mxGeometry x="234" y="80" width="360" height="60" as="geometry" />
        </mxCell>
        <mxCell id="23yiksCy7n83ZFFkhgIV-1" value="&lt;div&gt;&lt;div&gt;&lt;span style=&quot;font-size: 18px&quot;&gt;The healthy weight range for your height is 59.9kg - 81.0kg.&lt;/span&gt;&lt;/div&gt;&lt;/div&gt;&lt;div style=&quot;font-size: 14px&quot;&gt;&lt;div&gt;&lt;span&gt;&lt;br&gt;&lt;/span&gt;&lt;/div&gt;&lt;div&gt;&lt;span&gt;Maintaining a Healthy Weight&lt;/span&gt;&lt;/div&gt;&lt;div&gt;&lt;span&gt;Being underweight, overweight, or obese are conditions that lead to significantly different health complications. Managing these conditions however, involves addressing many similar underlying issues including diet, exercise, and possible mental health disorders.&lt;/span&gt;&lt;/div&gt;&lt;div&gt;&lt;span&gt;&lt;br&gt;&lt;/span&gt;&lt;/div&gt;&lt;div&gt;&lt;span&gt;In the case of being underweight, increasing calorie intake through eating nutrient-rich foods such as whole-grains, vegetables, lean protein sources, and nuts and seeds more frequently can help underweight individuals to gain weight in a healthy manner. In addition, exercise such as weight lifting to increase muscle mass can also increase a person&#39;s weight. When the underlying cause of a person being underweight is a mental health disorder such as anorexia or bulimia nervosa, treatment involves addressing the psychological problems in conjunction with physical approaches to increase weight.&lt;/span&gt;&lt;/div&gt;&lt;/div&gt;" style="text;html=1;strokeColor=none;fillColor=none;align=center;verticalAlign=middle;whiteSpace=wrap;rounded=0;" parent="1" vertex="1">
          <mxGeometry x="133" y="130" width="563" height="270" as="geometry" />
        </mxCell>
      </root>
    </mxGraphModel>
  </diagram>
</mxfile>
